<svg width="16" height="26" viewBox="0 0 16 26" fill="none" xmlns="http://www.w3.org/2000/svg">
<path d="M6.14103 14.0008L4.47122 13.3971L5.02244 11.6017C5.21076 10.9882 4.9009 10.3237 4.33033 10.1175L2.66052 9.5138L3.21174 7.71842C3.40006 7.10493 3.0902 6.44042 2.51963 6.23416C1.94927 6.02804 1.33387 6.35802 1.14547 6.97144L0.253309 9.87767C0.06499 10.4912 0.374844 11.1557 0.945421 11.3619L2.61523 11.9656L2.06401 13.761C1.87569 14.3745 2.18555 15.039 2.75612 15.2452L4.42593 15.8489L3.87471 17.6443C3.68639 18.2578 3.99625 18.9223 4.56682 19.1286C5.13828 19.335 5.7529 19.0038 5.94097 18.3913L6.83314 15.4851C7.02146 14.8716 6.71161 14.2071 6.14103 14.0008Z" fill="#C1C3F3"/>
<path d="M12.6712 7.43456C12.5576 7.89606 12.8212 8.36551 13.2646 8.51044C13.7558 8.671 14.2728 8.37989 14.3961 7.87918L14.9539 5.61264C15.0722 5.13214 14.7806 4.64225 14.3055 4.52073L12.9201 4.16364L13.264 2.76672C13.3821 2.28643 13.0917 1.79773 12.6156 1.67481L10.3677 1.09537C9.8914 0.972568 9.40951 1.26238 9.29126 1.74271C9.17303 2.22298 9.46297 2.71157 9.93966 2.83462L11.325 3.19171L10.9812 4.58863C10.8619 5.07335 11.1607 5.55973 11.6296 5.68053L13.015 6.03763L12.6712 7.43456Z" fill="#C9B8D8"/>
<path d="M13.9238 21.854C15.0219 20.98 14.9734 21.0262 15.044 20.9416C15.2818 20.6567 15.2919 20.235 15.0474 19.934L14.2345 18.9335L15.2389 18.134C15.5843 17.8592 15.6376 17.3575 15.3581 17.0135C15.0786 16.6694 14.572 16.6133 14.2267 16.8882L12.5969 18.1853C12.2518 18.46 12.1982 18.9618 12.4777 19.3059L13.2907 20.3064L12.2862 21.1059C11.9409 21.3807 11.8875 21.8824 12.167 22.2264L12.98 23.227L11.9756 24.0264C11.6302 24.3013 11.5768 24.803 11.8564 25.147C12.1358 25.491 12.6424 25.5471 12.9878 25.2722L14.6176 23.9752C14.9629 23.7003 15.0163 23.1986 14.7368 22.8546L13.9238 21.854Z" fill="#EDC4D6"/>
</svg>
